<?xml version="1.0" encoding="UTF-8"?>
<svg version="1.1" xmlns="http://www.w3.org/2000/svg" width="250" height="250">
<path d="M0 0 C17.16 0 34.32 0 52 0 C52 0.66 52 1.32 52 2 C52.96099609 2.07347656 52.96099609 2.07347656 53.94140625 2.1484375 C59.21196085 2.6040145 63.96986288 3.3597379 69 5 C69 5.66 69 6.32 69 7 C70.546875 7.185625 70.546875 7.185625 72.125 7.375 C75.64293321 7.94240858 78.70221925 8.66518398 82 10 C82.33 10.66 82.66 11.32 83 12 C84.88263881 12.90343684 84.88263881 12.90343684 87.0625 13.625 C87.79597656 13.88539062 88.52945313 14.14578125 89.28515625 14.4140625 C89.85105469 14.60742188 90.41695312 14.80078125 91 15 C91 15.66 91 16.32 91 17 C91.969375 17.28875 92.93875 17.5775 93.9375 17.875 C97 19 97 19 98 21 C100.65756064 22.74839516 102.97382445 23.99127482 106 25 C107.35827971 26.64639965 108.69254251 28.31295807 110 30 C110.66 30.33 111.32 30.66 112 31 C112.33 31.66 112.66 32.32 113 33 C113.99 33.33 114.98 33.66 116 34 C117.01187895 35.65948148 118.0126546 37.32580562 119 39 C119.66 39 120.32 39 121 39 C122.01866229 40.65532623 123.01810813 42.32260138 124 44 C124.66 44.33 125.32 44.66 126 45 C129 50.42307692 129 50.42307692 129 53 C129.99 53.33 130.98 53.66 132 54 C133.06775224 55.96466413 134.06553465 57.96855359 135 60 C135.66 60.99 136.32 61.98 137 63 C138 65 139 67 140 69 C140.99 70.485 140.99 70.485 142 72 C142.53965533 73.46516421 143.03728477 74.9462493 143.5 76.4375 C144.20407605 78.69896167 144.87798271 80.7708573 145.9921875 82.86328125 C147.35112097 85.74443089 147.9414133 88.64278773 148.625 91.75 C148.88539063 92.92046875 149.14578125 94.0909375 149.4140625 95.296875 C149.70410156 96.63492188 149.70410156 96.63492188 150 98 C150.33 98 150.66 98 151 98 C151.05067075 105.61715864 151.08572127 113.23427387 151.10986328 120.8515625 C151.11992668 123.4433759 151.13357864 126.03517793 151.15087891 128.62695312 C151.17511195 132.35028894 151.18647974 136.07347477 151.1953125 139.796875 C151.20563507 140.95741394 151.21595764 142.11795288 151.22659302 143.31365967 C151.22674408 144.39447815 151.22689514 145.47529663 151.22705078 146.58886719 C151.231492 147.53928894 151.23593323 148.48971069 151.24050903 149.46893311 C150.98637047 152.14343435 150.28533592 153.67287587 149 156 C148.16563685 159.61279243 147.47778249 163.24115892 146.78125 166.8828125 C146 170 146 170 144 172 C143.46894316 173.44024839 142.99550314 174.90230007 142.5625 176.375 C141.470949 179.83157818 140.25849632 182.15233073 138 185 C137.67 186.03125 137.34 187.0625 137 188.125 C136 191 136 191 133 193 C132.31867549 194.66072849 131.65257873 196.327767 131 198 C129.5625 199.5625 129.5625 199.5625 128 201 C126.25415934 203.20127736 124.76033453 205.39944245 123.3125 207.8125 C120.82615352 211.23962623 118.13510745 213.68757823 114.90234375 216.38671875 C113.17216375 217.85399665 111.59186497 219.3864475 110 221 C106.43110748 224.18096942 103.46627758 226.3410969 99 228 C98.67 228.66 98.34 229.32 98 230 C96.02678947 231.3726682 94.02456848 232.70427617 92 234 C91.01 234.66 90.02 235.32 89 236 C86.67891331 236.70812814 84.34622853 237.38024152 82 238 C82 238.66 82 239.32 82 240 C80.54293274 240.50367757 79.08429904 241.00282556 77.625 241.5 C76.40683594 241.91765625 76.40683594 241.91765625 75.1640625 242.34375 C73 243 73 243 71 243 C71 243.66 71 244.32 71 245 C68.93918639 245.50690584 66.87626474 246.00524619 64.8125 246.5 C63.08966797 246.91765625 63.08966797 246.91765625 61.33203125 247.34375 C58.43181171 247.91495385 55.93903615 248.13283779 53 248 C53 248.66 53 249.32 53 250 C35.18 250 17.36 250 -1 250 C-1 249.67 -1 249.34 -1 249 C-2.19238281 248.73445312 -3.38476562 248.46890625 -4.61328125 248.1953125 C-6.17976175 247.83886783 -7.74616398 247.48207903 -9.3125 247.125 C-10.09818359 246.95097656 -10.88386719 246.77695313 -11.69335938 246.59765625 C-12.45068359 246.42363281 -13.20800781 246.24960938 -13.98828125 246.0703125 C-14.68477783 245.91320801 -15.38127441 245.75610352 -16.09887695 245.59423828 C-18 245 -18 245 -21 243 C-22.54766142 242.4172881 -24.11192222 241.87735813 -25.6875 241.375 C-26.49574219 241.11460937 -27.30398437 240.85421875 -28.13671875 240.5859375 C-29.05904297 240.29589844 -29.05904297 240.29589844 -30 240 C-30 239.34 -30 238.68 -30 238 C-32.97 237.01 -35.94 236.02 -39 235 C-39 234.34 -39 233.68 -39 233 C-39.969375 232.71125 -40.93875 232.4225 -41.9375 232.125 C-45 231 -45 231 -46 229 C-47.24637472 228.34686542 -48.52262809 227.74987458 -49.8125 227.1875 C-53.57644734 225.39642667 -55.57947313 223.44459594 -58 220 C-58.66 219.67 -59.32 219.34 -60 219 C-60.33 218.34 -60.66 217.68 -61 217 C-61.99 216.67 -62.98 216.34 -64 216 C-65.01187895 214.34051852 -66.0126546 212.67419438 -67 211 C-67.66 211 -68.32 211 -69 211 C-69.99 209.02 -70.98 207.04 -72 205 C-72.66 205 -73.32 205 -74 205 C-77 199.25 -77 199.25 -77 197 C-77.99 196.67 -78.98 196.34 -80 196 C-81.06775224 194.03533587 -82.06553465 192.03144641 -83 190 C-83.66 189.01 -84.32 188.02 -85 187 C-86.01691264 185.00854609 -87.01642648 183.00812926 -88 181 C-88.33773437 180.37480469 -88.67546875 179.74960938 -89.0234375 179.10546875 C-90.0804101 176.82663582 -90.61909793 174.70723865 -91.125 172.25 C-91.29257813 171.45078125 -91.46015625 170.6515625 -91.6328125 169.828125 C-91.75398438 169.22484375 -91.87515625 168.6215625 -92 168 C-92.66 168 -93.32 168 -94 168 C-95.98 159.585 -95.98 159.585 -98 151 C-98.33 151 -98.66 151 -99 151 C-99.05067793 143.66767322 -99.08572428 136.33539156 -99.10986328 129.00292969 C-99.11992561 126.50812085 -99.13357679 124.01332382 -99.15087891 121.51855469 C-99.17511668 117.93421516 -99.18648082 114.35003147 -99.1953125 110.765625 C-99.20563507 109.64883362 -99.21595764 108.53204224 -99.22659302 107.38140869 C-99.22674408 106.34063171 -99.22689514 105.29985474 -99.22705078 104.22753906 C-99.231492 103.31264709 -99.23593323 102.39775513 -99.24050903 101.45513916 C-98.98305603 98.82703437 -98.26799849 97.28870617 -97 95 C-96.41076456 92.76198651 -95.87225083 90.51023105 -95.375 88.25 C-94.98441406 86.49429688 -94.98441406 86.49429688 -94.5859375 84.703125 C-94.39257812 83.81109375 -94.19921875 82.9190625 -94 82 C-93.34 82 -92.68 82 -92 82 C-91.87882812 81.39671875 -91.75765625 80.7934375 -91.6328125 80.171875 C-91.46523437 79.37265625 -91.29765625 78.5734375 -91.125 77.75 C-90.96257812 76.96109375 -90.80015625 76.1721875 -90.6328125 75.359375 C-90.00244728 73.00912442 -89.13372395 71.14522488 -88 69 C-87.02050908 66.71187748 -86.05467164 64.41870559 -85.09765625 62.12109375 C-83.97425242 59.95024578 -82.76656515 58.66066751 -81 57 C-80.67 56.34 -80.34 55.68 -80 55 C-79 53 -79 53 -77.5 51.5625 C-75.60096688 49.5843405 -74.90100969 47.56441218 -74 45 C-73.34 45 -72.68 45 -72 45 C-70.63823078 43.35648543 -69.31037934 41.68477344 -68 40 C-65.51965965 37.45606118 -62.98057165 34.98104552 -60.4375 32.5 C-57.96013407 30.0573892 -57.96013407 30.0573892 -55.9375 27.3125 C-53.98459061 24.98160815 -52.76641804 24.12385733 -50 23 C-46.85474188 21.69371277 -46.85474188 21.69371277 -45 19 C-43.33333333 18.33333333 -41.66666667 17.66666667 -40 17 C-39.67 16.34 -39.34 15.68 -39 15 C-37.3523962 14.28752268 -35.68236471 13.62599617 -34 13 C-32.03141688 12.04553546 -30.09757577 11.05307119 -28.17578125 10.0078125 C-25.8674886 8.93862129 -23.73793159 8.38722121 -21.25 7.875 C-20.45078125 7.70742187 -19.6515625 7.53984375 -18.828125 7.3671875 C-18.22484375 7.24601563 -17.6215625 7.12484375 -17 7 C-17 6.34 -17 5.68 -17 5 C-15.10614563 4.49255577 -13.20981334 3.99435426 -11.3125 3.5 C-9.72888672 3.08234375 -9.72888672 3.08234375 -8.11328125 2.65625 C-5.28857328 2.0608285 -2.87163292 1.87213508 0 2 C0 1.34 0 0.68 0 0 Z " fill="#CDF6DB" transform="translate(99,0)"/>
<path d="M0 0 C4.62 0 9.24 0 14 0 C14 40.59 14 81.18 14 123 C9.38 123 4.76 123 0 123 C-2.16428764 116.64842588 -4.11919848 110.270873 -5.9375 103.8125 C-6.46475573 101.95049591 -6.99209956 100.08851676 -7.51953125 98.2265625 C-7.77299316 97.32969727 -8.02645508 96.43283203 -8.28759766 95.50878906 C-8.89622264 93.36546132 -9.51273325 91.22483057 -10.13671875 89.0859375 C-12.15545725 82.14403039 -13.99860728 75.1781151 -15.69384766 68.15112305 C-16.57322024 64.48046821 -16.57322024 64.48046821 -18 61 C-18.33 81.46 -18.66 101.92 -19 123 C-23.62 123 -28.24 123 -33 123 C-33.02312014 108.805439 -33.0409134 94.61088245 -33.05181217 80.4163065 C-33.05704172 73.82595215 -33.06414067 67.23561063 -33.07543945 60.64526367 C-33.08626578 54.29107982 -33.09227629 47.93690835 -33.09487724 41.58271599 C-33.09673195 39.15250389 -33.10035343 36.72229251 -33.10573006 34.29208565 C-33.11293711 30.90117019 -33.11399108 27.51030659 -33.11352539 24.11938477 C-33.11712067 23.10374954 -33.12071594 22.08811432 -33.12442017 21.04170227 C-33.1230455 20.12318481 -33.12167084 19.20466736 -33.12025452 18.25831604 C-33.12117631 17.45543435 -33.1220981 16.65255266 -33.12304783 15.82534122 C-33 14 -33 14 -32 13 C-29.69006618 12.87442838 -27.37581464 12.82424271 -25.0625 12.8125 C-23.79535156 12.79832031 -22.52820313 12.78414062 -21.22265625 12.76953125 C-18 13 -18 13 -16 15 C-15.40576172 16.81591797 -15.40576172 16.81591797 -14.9296875 18.9921875 C-14.75566406 19.77980469 -14.58164063 20.56742188 -14.40234375 21.37890625 C-14.22832031 22.20261719 -14.05429688 23.02632812 -13.875 23.875 C-13.69324219 24.69097656 -13.51148438 25.50695312 -13.32421875 26.34765625 C-12.52047457 30.05213132 -12 33.17353509 -12 37 C-11.34 37 -10.68 37 -10 37 C-7.48423889 45.44385775 -5.24606204 53.89532726 -3.30761719 62.48803711 C-2.46030486 66.34722974 -2.46030486 66.34722974 -1 70 C-0.67 46.9 -0.34 23.8 0 0 Z " fill="#0A0C0B" transform="translate(195,61)"/>
<path d="M0 0 C11.88 0 23.76 0 36 0 C36 4.29 36 8.58 36 13 C28.74 13 21.48 13 14 13 C14 20.92 14 28.84 14 37 C20.27 37 26.54 37 33 37 C33 41.29 33 45.58 33 50 C27.06 50 21.12 50 15 50 C15 58.25 15 66.5 15 75 C22.26 75 29.52 75 37 75 C37 79.62 37 84.24 37 89 C24.79 89 12.58 89 0 89 C0 59.63 0 30.26 0 0 Z " fill="#090B0A" transform="translate(117,95)"/>
<path d="M0 0 C26 0 26 0 34 7 C37.21611547 15.44230312 37.62580627 27.95880188 34.9375 36.6875 C32.03195893 41.65503796 28.41714888 44.19428371 23 46 C19.37 46 15.74 46 12 46 C12 53.59 12 61.18 12 69 C8.04 69 4.08 69 0 69 C0 46.23 0 23.46 0 0 Z " fill="#060807" transform="translate(75,115)"/>
<path d="M0 0 C0 0.66 0 1.32 0 2 C0.763125 2.226875 1.52625 2.45375 2.3125 2.6875 C6.15940482 4.56622096 7.15290114 7.30580228 9 11 C9.32438558 14.84704868 9.32467485 18.70347605 9.375 22.5625 C9.41238281 23.62275391 9.44976562 24.68300781 9.48828125 25.77539062 C9.57007032 33.14095105 8.25932314 37.96323225 4 44 C3.34 44 2.68 44 2 44 C1.67 44.99 1.34 45.98 1 47 C-3.94742814 48.64914271 -8.93798475 48.8248061 -13.8125 46.875 C-17.37040892 43.82536379 -19.52418761 40.42743717 -21 36 C-21.25845716 32.29623062 -21.23144085 28.58682928 -21.25 24.875 C-21.270625 23.86695313 -21.29125 22.85890625 -21.3125 21.8203125 C-21.34506624 15.53502797 -20.95799342 9.66641575 -18 4 C-12.42071018 -0.76564339 -7.10677745 -0.46264736 0 0 Z " fill="#0E110F" transform="translate(59,137)"/>
<path d="M0 0 C6.47934315 -0.36675527 6.47934315 -0.36675527 8.70556641 1.20141602 C10.40823503 3.56723264 10.38729234 5.06471334 10.3984375 7.96484375 C10.40230469 8.92970703 10.40617187 9.89457031 10.41015625 10.88867188 C10.39855469 11.89478516 10.38695312 12.90089844 10.375 13.9375 C10.38660156 14.93974609 10.39820313 15.94199219 10.41015625 16.97460938 C10.40628906 17.94076172 10.40242188 18.90691406 10.3984375 19.90234375 C10.39505371 20.78398193 10.39166992 21.66562012 10.38818359 22.57397461 C9.91692521 25.51919131 9.10791804 26.90264267 7 29 C3.3125 29.25 3.3125 29.25 0 29 C-3.50475638 19.80001451 -2.96956444 9.27988886 0 0 Z " fill="#C8EED6" transform="translate(49,146)"/>
<path d="M0 0 C8 0 8 0 10.46875 1.53515625 C12.58270658 4.93797921 12.53158994 7.45321836 12.5 11.4375 C12.5103125 12.73558594 12.520625 14.03367188 12.53125 15.37109375 C11.91353798 19.59061186 11.30119268 21.28905221 8 24 C5.36 24 2.72 24 0 24 C0 16.08 0 8.16 0 0 Z " fill="#C4E9D1" transform="translate(87,126)"/>
<path d="M0 0 C0.33 0 0.66 0 1 0 C1.05819424 3.24992446 1.09366116 6.49971435 1.125 9.75 C1.14175781 10.67039063 1.15851563 11.59078125 1.17578125 12.5390625 C1.18222656 13.42851562 1.18867188 14.31796875 1.1953125 15.234375 C1.20578613 16.05131836 1.21625977 16.86826172 1.22705078 17.70996094 C0.97548291 20.24727988 0.20712409 21.77599277 -1 24 C-1.59298682 26.40458878 -2.13065418 28.82321143 -2.625 31.25 C-2.88539063 32.51328125 -3.14578125 33.7765625 -3.4140625 35.078125 C-3.60742188 36.04234375 -3.80078125 37.0065625 -4 38 C-4.66 37.67 -5.32 37.34 -6 37 C-5.89042969 36.38898438 -5.78085938 35.77796875 -5.66796875 35.1484375 C-4.24808849 26.95238073 -3.1245059 18.72827523 -2.0534668 10.47998047 C-1.87037964 9.09576904 -1.87037964 9.09576904 -1.68359375 7.68359375 C-1.57587646 6.85400146 -1.46815918 6.02440918 -1.35717773 5.16967773 C-1 3 -1 3 0 0 Z " fill="#7D9485" transform="translate(249,132)"/>
<path d="M0 0 C-0.66 0.33 -1.32 0.66 -2 1 C-2 1.66 -2 2.32 -2 3 C-4.06081361 3.50690584 -6.12373526 4.00524619 -8.1875 4.5 C-9.33605469 4.7784375 -10.48460937 5.056875 -11.66796875 5.34375 C-14.56818829 5.91495385 -17.06096385 6.13283779 -20 6 C-20 6.66 -20 7.32 -20 8 C-24.62 8 -29.24 8 -34 8 C-34 7.67 -34 7.34 -34 7 C-32.453125 6.814375 -32.453125 6.814375 -30.875 6.625 C-27.13280793 6.12819217 -27.13280793 6.12819217 -24.1875 5.0625 C-18.56603174 3.18867725 -12.92938809 2 -7 2 C-7 1.34 -7 0.68 -7 0 C-3.98968256 -0.93423645 -3.13349732 -1.04449911 0 0 Z " fill="#708578" transform="translate(172,242)"/>
<path d="M0 0 C0 0.66 0 1.32 0 2 C-1.98 2.33 -3.96 2.66 -6 3 C-6 3.66 -6 4.32 -6 5 C-6.76183594 5.30292969 -7.52367188 5.60585937 -8.30859375 5.91796875 C-14.22401005 8.31810645 -19.80800878 10.84592478 -25.2578125 14.1796875 C-25.83273438 14.45039063 -26.40765625 14.72109375 -27 15 C-27.66 14.67 -28.32 14.34 -29 14 C-27.6100869 11.22017379 -25.81341647 11.12536659 -23 10 C-22.67 9.34 -22.34 8.68 -22 8 C-20.3523962 7.28752268 -18.68236471 6.62599617 -17 6 C-15.01806669 5.03906264 -13.06837235 4.03646525 -11.125 3 C-7.44021254 1.26598237 -4.0916508 0 0 0 Z " fill="#6E8275" transform="translate(82,7)"/>
<path d="M0 0 C1.96529009 3.45207476 2.7746477 6.88476226 3.625 10.75 C3.88539063 11.92046875 4.14578125 13.0909375 4.4140625 14.296875 C4.60742188 15.18890625 4.80078125 16.0809375 5 17 C5.33 17 5.66 17 6 17 C6 21.29 6 25.58 6 30 C5.67 30 5.34 30 5 30 C5 28.02 5 26.04 5 24 C4.34 24 3.68 24 3 24 C2.30335725 20.18911105 1.61922037 16.37608427 0.9375 12.5625 C0.73833984 11.47388672 0.53917969 10.38527344 0.33398438 9.26367188 C0.15029297 8.22919922 -0.03339844 7.19472656 -0.22265625 6.12890625 C-0.39547119 5.17056885 -0.56828613 4.21223145 -0.74633789 3.22485352 C-0.83004639 2.49065186 -0.91375488 1.7564502 -1 1 C-0.67 0.67 -0.34 0.34 0 0 Z " fill="#6B8072" transform="translate(244,81)"/>
<path d="M0 0 C5.00890086 0.61512818 10.00632136 1.2717552 15 2 C15 2.66 15 3.32 15 4 C17.97 4 20.94 4 24 4 C24 4.33 24 4.66 24 5 C18.72 5 13.44 5 8 5 C8 4.67 8 4.34 8 4 C3.545 3.01 3.545 3.01 -1 2 C-0.67 1.34 -0.34 0.68 0 0 Z " fill="#6E8275" transform="translate(90,245)"/>
<path d="M0 0 C6.27 0 12.54 0 19 0 C19 0.33 19 0.66 19 1 C17.700625 1.12375 16.40125 1.2475 15.0625 1.375 C11.72393098 1.73195392 8.56704764 2.30582815 5.3125 3.125 C1.59689748 4.01152972 -1.2489423 3.96180967 -5 3 C-5 2.67 -5 2.34 -5 2 C-3.35 2 -1.7 2 0 2 C0 1.34 0 0.68 0 0 Z " fill="#778D7F" transform="translate(99,0)"/>
<path d="M0 0 C2 3 2 3 1.625 5.1875 C1.41875 5.785625 1.2125 6.38375 1 7 C0.34 7 -0.32 7 -1 7 C-1.06058594 7.60328125 -1.12117187 8.2065625 -1.18359375 8.828125 C-1.30927734 10.02695313 -1.30927734 10.02695313 -1.4375 11.25 C-1.51871094 12.03890625 -1.59992187 12.8278125 -1.68359375 13.640625 C-1.97634993 15.82364639 -2.42064419 17.8773182 -3 20 C-3.66 20 -4.32 20 -5 20 C-4.48517081 14.147205 -3.54642808 8.6702363 -2 3 C-1.34 3 -0.68 3 0 3 C0 2.01 0 1.02 0 0 Z " fill="#748B7C" transform="translate(7,79)"/>
<path d="M0 0 C0.66 0 1.32 0 2 0 C2.433125 1.2065625 2.433125 1.2065625 2.875 2.4375 C3.73262568 5.1326468 3.73262568 5.1326468 6 6 C7.0703125 7.99609375 7.0703125 7.99609375 8.125 10.4375 C8.65480469 11.64212891 8.65480469 11.64212891 9.1953125 12.87109375 C10 15 10 15 10 17 C7 16 7 16 5.4375 13.125 C4.963125 12.09375 4.48875 11.0625 4 10 C3.34 9.01 2.68 8.02 2 7 C1.29187186 4.67891331 0.61975848 2.34622853 0 0 Z " fill="#768D7E" transform="translate(12,180)"/>
<path d="M0 0 C0 0.66 0 1.32 0 2 C-1.98 2.33 -3.96 2.66 -6 3 C-6 3.66 -6 4.32 -6 5 C-7.98 5.66 -9.96 6.32 -12 7 C-12.33 5.68 -12.66 4.36 -13 3 C-11.39743892 2.49487756 -9.79288208 1.99608373 -8.1875 1.5 C-7.29417969 1.2215625 -6.40085937 0.943125 -5.48046875 0.65625 C-3 0 -3 0 0 0 Z " fill="#7F9487" transform="translate(82,7)"/>
<path d="M0 0 C0 0.66 0 1.32 0 2 C-1.2065625 2.433125 -1.2065625 2.433125 -2.4375 2.875 C-5.1326468 3.73262568 -5.1326468 3.73262568 -6 6 C-10.5 9 -10.5 9 -13 9 C-13 8.34 -13 7.68 -13 7 C-12.360625 6.71125 -11.72125 6.4225 -11.0625 6.125 C-8.84793921 5.17176549 -8.84793921 5.17176549 -8 3 C-5.06295544 0.9904432 -3.60777515 0 0 0 Z " fill="#65786C" transform="translate(203,224)"/>
<path d="M0 0 C0 0.66 0 1.32 0 2 C-0.99 2 -1.98 2 -3 2 C-3 2.66 -3 3.32 -3 4 C-5.64 4 -8.28 4 -11 4 C-11 3.34 -11 2.68 -11 2 C-7.12315913 0.80712589 -4.08378077 0 0 0 Z " fill="#65786C" transform="translate(93,3)"/>
<path d="M0 0 C-3.28463659 2.18975773 -6.20696275 2.99806563 -10 4 C-10 4.66 -10 5.32 -10 6 C-10.66 6 -11.32 6 -12 6 C-11.7421875 4.11328125 -11.7421875 4.11328125 -11 2 C-9.2578125 0.91796875 -9.2578125 0.91796875 -7.125 0.1875 C-6.42632812 -0.06644531 -5.72765625 -0.32039062 -5.0078125 -0.58203125 C-3 -1 -3 -1 0 0 Z " fill="#5D6D63" transform="translate(191,234)"/>
<path d="M0 0 C0.33 0.99 0.66 1.98 1 3 C-4.14285714 8.57142857 -4.14285714 8.57142857 -8 9 C-4.91836735 2.83673469 -4.91836735 2.83673469 -1 1 C-0.67 0.67 -0.34 0.34 0 0 Z " fill="#5F7065" transform="translate(50,22)"/>
<path d="M0 0 C0.66 0.66 1.32 1.32 2 2 C1.01 3.485 1.01 3.485 0 5 C-0.66 5 -1.32 5 -2 5 C-2 5.66 -2 6.32 -2 7 C-3.875 9.125 -3.875 9.125 -6 11 C-6.66 11 -7.32 11 -8 11 C-6.63629701 8.00779732 -5.05091917 5.70973471 -2.875 3.25 C-2.33617187 2.63640625 -1.79734375 2.0228125 -1.2421875 1.390625 C-0.62730469 0.70226562 -0.62730469 0.70226562 0 0 Z " fill="#90AB99" transform="translate(40,30)"/>
<path d="M0 0 C-0.99 0.495 -0.99 0.495 -2 1 C-2 1.66 -2 2.32 -2 3 C-4.31 3.33 -6.62 3.66 -9 4 C-9 3.34 -9 2.68 -9 2 C-8.34 2 -7.68 2 -7 2 C-7 1.34 -7 0.68 -7 0 C-3.98968256 -0.93423645 -3.13349732 -1.04449911 0 0 Z " fill="#5B6B61" transform="translate(172,242)"/>
<path d="M0 0 C1.6510403 0.39553053 3.2958515 0.81713897 4.9375 1.25 C5.85402344 1.48203125 6.77054687 1.7140625 7.71484375 1.953125 C10 3 10 3 10.81640625 5.109375 C10.87699219 5.73328125 10.93757813 6.3571875 11 7 C10.34 7 9.68 7 9 7 C9 6.34 9 5.68 9 5 C6.03 4.01 3.06 3.02 0 2 C0 1.34 0 0.68 0 0 Z " fill="#596A5F" transform="translate(60,233)"/>
<path d="M0 0 C-1 3 -1 3 -2.9375 4.0625 C-3.618125 4.371875 -4.29875 4.68125 -5 5 C-5.66 5.66 -6.32 6.32 -7 7 C-7.33 6.34 -7.66 5.68 -8 5 C-3.16129032 0 -3.16129032 0 0 0 Z " fill="#505F55" transform="translate(211,218)"/>
<path d="M0 0 C0.33 0.66 0.66 1.32 1 2 C1.99 2.33 2.98 2.66 4 3 C4.33 4.65 4.66 6.3 5 8 C4.34 8 3.68 8 3 8 C2.67 6.68 2.34 5.36 2 4 C1.34 4 0.68 4 0 4 C0 2.68 0 1.36 0 0 Z " fill="#748A7C" transform="translate(227,51)"/>
</svg>
